<svg width="899" height="1350" viewBox="0 0 899 1350" fill="none" xmlns="http://www.w3.org/2000/svg">
<path d="M341.93 1337.67H341.85L338.62 1335.91L335.09 1329.75L322.72 1322.09L308.64 1318.57L281.73 1315.04L281.69 1310.01L276.71 1303.73L281.77 1308.8L282.2 1314.78H285.31L285.5 1310.69L286.63 1311.6L287.91 1310.09L286.55 1306.52L287.22 1309.23L285.54 1309.71L279.63 1303.95L276.05 1303.17L267.19 1295.61L262.99 1294.5L259.41 1295.61L255.87 1292.05L258.48 1288.92L255.21 1291.66L253.31 1288.02L254.9 1288.49L255.02 1287.24L251.2 1287.41L251.05 1285.78L253.61 1283.99L251.36 1268.12L246.97 1261.83L239.3 1257.76L238.07 1251.69L232.31 1244.5L225.54 1224.76V1214.85L221.18 1207.6L217.3 1192.86L218.31 1186.81L217.06 1184.85L216.83 1176.08L218.16 1174.38L215.97 1168.68L217.07 1165.63L214.34 1159.34L216.37 1161.04L214.96 1156.62L216.2 1152.28L214.65 1151.1L216.87 1145.11L223.17 1143.33L225.97 1140.87L230.05 1141.16L226.12 1140.36L225.42 1138.66L224.8 1139.43L223.75 1135.91L224.34 1134.68L225.54 1136.07L227.02 1129.97L223.05 1126.23L221.85 1122.3L219.74 1122.72L214.85 1117.89L215.08 1119.93L212.71 1115.14L214.3 1116.11L216.91 1113.95L213.45 1114.84L214.06 1111.29L212.94 1114.89L213.64 1103.8L210.84 1090.18L203.57 1084.13L201 1083.97L199.1 1080.71L199.64 1078.94L198.32 1079.28L189.84 1067.54L186.96 1053.54L182.22 1040.57L182.3 1031.55L179.73 1019.36L176.85 1014.81L177.79 1010.27L176 1007.25L177.55 1004.56L182.34 1004.1L183.27 1005.52L184.48 1004.14L182.1 997.71L179.69 1002L179.27 997.25L176.77 998.59L178.57 990.45L177.24 989.77L177.71 987.01L180.27 980.8L179.81 977.36L180.94 979.5L182.46 978.95L181.29 972.41L183.97 968.1L184.59 977.32L185.1 973.34L186.07 972.54L186.85 974.22L187.82 971.5L186.03 968.56L186.58 961.02L188.33 962.4L188.68 961.19L186.97 960.52L187.74 957.42L192.18 953.65L195.67 947.04L198.28 946.16L198.32 949.21L201.82 950.3L198.71 946.71L199.49 943.61L199.99 944.57L201.2 942.78L200.93 941.06L199.57 942.78L198.71 937L201.74 936.91L198.01 935.16L200.57 935.41L198.24 934.83L198.32 932.91L200.96 931.23L198.52 932.45L198.78 930.23L202.36 929.4L201.16 928.43L198.08 929.9L199.61 919.08L200.42 924.96L200.69 916.99L201.04 918.12L201.82 913.02L201.59 916.7L202.25 915.82L203.3 920.12L205.79 919.45L204.97 918.66L203.8 919.83L202.9 918.28L203.88 914.4L205.28 914.32L206.68 916.48L208.55 915.57L212.01 925.88L213.52 926.18L211.31 921.96L209.75 912.85L212.01 913.27L210.37 911.35L211 909.93L212.75 909.73L212.16 911.18L213.06 910.23L213.29 912.06L213.99 909.56L214.11 911.77L214.53 910.48L214.81 911.11L215.31 909.47L219.51 909.06L217.61 910.69L218.11 912.06L217.88 910.81L221.38 909.47L220.33 912.44L221.92 910.23L221.18 911.85L222.98 912.78L222.82 913.77L224.1 914.4L223.05 913.77L223.21 910.02L227.44 907.47L228.03 908.77L227.72 907.18L233.63 896.34L235.26 886.75L236.59 886.58L236.54 885.37L235.65 886.42L236.59 877L239.54 866.51L245.18 858.07L243.32 863.23L246.07 859.35L245.41 856.07L245.96 856.9L247.35 855.49L247.55 858.77L248.29 857.82L249.3 859.4L252.6 857.44L248.02 856.53L249.69 854.07L252.53 853.12L254.63 848.88L259.3 830.27L261.47 830.52L260.34 832.8L262.95 829.94L262.01 828.95L264 825.75L267.96 822.92L268.28 824.59L268.74 823.17L269.64 823.79L272.13 820.39L272.55 815.29L274.93 817.91L274.69 815.83L272.44 815L273.22 812.1L278.11 806.46L277.18 806.21L278.31 804.93L276.87 805.88L281.27 798.46L281.85 799.41L283.13 794.65L283.52 796.72L284.46 795.23L284.72 796.19L284.57 794.28L283.91 795.48L283.25 794.45L285.85 791.84L285 793.41L288.31 792.05L286.51 791.8L288.26 788.69L290.4 788.98L288.22 788.4L288.92 785.91L289.98 786.95L292.19 786.17L289.78 786L291.73 779.71L291.69 781.99L293.83 780.87L292.35 770.61L293.51 769.95L292.54 768.5L291.26 769.62L293.2 763.66L287.09 767.01L286.36 765.31L287.68 764L285.93 765.36L284.18 759.94L285.19 760.27L284.34 758.29L285.7 757.5L287.53 758.54L286.67 755.81L288.15 753.99L287.68 749.53L288.97 752.47L289.47 750.28L287.06 748.38V746.81L290.33 746.48L287.52 745.65L291.22 736.86L293.08 742.97L293.67 742.18L292.66 740.86L292.58 728.32L286.12 716.12L284.14 713.43L284.38 715.17L283.09 714.3L282.31 712.08L283.64 712.33L274.38 699.31L274.46 696.6L273.22 697.25L271.5 692.72L272.83 692.39L271.15 692.27L270.18 690.01L270.34 677.1L270.92 679.85L272.87 679.77L274.46 680.72L271.34 678.33L271.35 673.4L272.59 673.56L271.03 670.44L272.68 669.86L272.91 666.57L268.43 652.65L271.11 655.4L268.9 651.67L267.61 651.87L263.26 643.58L263.96 642.03L252.37 623.82L253.61 624.06L252.6 620.95L253.38 621.44L253.7 613.82L251.83 600.47L253.62 600.31L251.59 599.82L250.35 595.56L251.36 596.71L251.09 592.82L250.51 594.42L249.49 578.22L250 581.21L249.57 575.85L251.28 574.87L249.96 573.97L251.59 571.2L252.22 560.17L251.86 558.41L251.71 560.45L248.71 558.54L250.19 557.39L248.1 555.76L249.49 554.62L247.78 554.46L248.48 553.8L245.29 550.21L246.7 548.9L244.48 549.76L242.5 546.62L244.9 547.35L242.03 545.55L243.11 540.99L242.03 536.58L245.38 539.84L242.11 535.36L246.15 526.55L247.09 526.8L249.03 520.2L250.31 522.19L251.52 521.34L251.55 519.67L250.35 521.01L250.58 518.32L254.86 512.06L254.59 513.97L258.05 509.77L257.2 509.28L258.36 505.38L259.14 504.64L259.1 506.96L260.22 501.39H261.32L259.68 501.06L261 497.8L262.44 496.05L264.12 498.05L263.49 496.5L270.18 488.29L268.78 489.1L272.44 481.7L274.07 482.43L274.46 480.65L273.45 480.89L278.11 471.78L279.9 472.6L279.12 471.13L280.76 466.59L282.7 467.89L281.15 465.94L289.24 457.97L289.62 452.7L286.51 444.74L288.11 442.11L287.84 445.39L290.56 448.23L288.23 444.99L291.26 442.72L292.42 437.52L286.05 423.5L286.24 421.99L286.98 423.66L286.13 420.58L290.24 411.91L289.51 407.98L293.4 406.52L297.44 409.76L297.67 407.9L293.82 406.81L305.76 407.66L305.37 408.55L308.56 409.03L321.55 408.71L322.91 408.91L322.41 410.09L319.49 410.29L322.02 411.14L322.95 409.19L322.68 411.18L324.74 410.89L325.91 412.28L332.59 406.44L340.92 407.9L336.14 405.76L344.18 400.45L354.37 389.77L364.95 382.81L367.09 383.18L367.01 390.13L369.58 393.29L367.4 400.01L369.07 402.31L372.11 400.05L373.89 400.45L373.66 399.48L376 401.18L375.37 399.16L371.68 398.95L377.16 396.24L380.16 392.56L378.8 392.92L378.09 391.06L377.78 393.49L376.38 392.84L374.75 387.66L381.44 387.74L394.43 384.11L394.38 387.06L396.33 388.84L394.43 392.11L392.68 392.16L393.53 392.96L392.05 395.47L397.07 391.63L396.41 395.8L398.16 393.97L398.94 396.08L398.16 392.36L400.22 394.66L397.42 390.54L398.35 386.01H401.54L400.06 385.68L399.83 383.58L400.26 381.84L402.09 381.72L400.92 381.07L401.31 377.35L400.18 377.63L399.68 375.09L398.35 375.17L404.81 369.03L404.54 367.13L413.71 370.2L410.41 371.12L413.71 370.85L414.1 374.88L413.94 370.44L416.59 371.65L418.07 370.12L421.1 371.25L419.12 370.48L423.28 367.37L424.52 369.06L424.18 366.68L425.54 367.77L426.55 366.64L432.03 368.7L430.94 371.85L431.75 376.1L438.68 374.56L442.41 379.18L441.52 376.46H444.16L439.42 373.55L442.1 371.73L445.99 371.98L442.45 369.75L446.03 367.9L443.19 368.02L439.15 371.81L437.04 372.3L436.38 371.04L445.29 362.04L451.67 360.74L458.01 362.56L459.1 366.6L457.77 371.94L455.91 373.31L459.72 374.93L461.66 380.26L461.04 382.04L461.78 380.87L464.27 386.94L464.11 385.15L468.04 389.4L466.68 385.8L471.89 389.45L469.25 384.99L476.4 389.04L478.69 389.32L474.07 386.45L477.72 386.7L482.23 389.28L477.68 384.14L475.97 379.62L481.81 384.39L477.57 382.81L482 385.15L482.51 383.74L477.26 377.39L470.72 373.67L464.97 373.84L463.91 371.77L469.99 365.87L469.17 364.22L471.85 364.34L470.14 363.13L471.19 362.68L464.31 363.29L466.4 356.66L475.39 347.26L476.91 348.26L475.74 346.97L479.43 342.01L482.27 341.57L479.86 343.09L481.69 346.05L480.56 343.42L493.43 334.1L498.33 332.16L497.51 334.31L500.12 335.71L499.03 331.44L495.18 332.21L517 315.31L524.77 312.09L526.22 314.54L526.45 320.51L532.94 323.21L533.64 325.87L535.39 325.42L531.62 330.15L528 332.2L524.11 346.81L518.51 351.5L524.27 349.88L528.04 340.4L532.01 347.25L533.84 344.79L533.87 339.75L536.06 341.33L534.88 345.4L537.06 339.42L538.15 341.12L538 339.35L539.82 341L538.54 336.44L540.25 336.52L540.8 338.46L540.45 336.56L541.42 336.68L542.9 339.51L543.37 337.81L546.32 339.35L548.22 338.26L545.04 336.88L547.41 336.93L549.43 334.26L553.13 332.61L545.27 332.69L544.95 330.19L542 327.53L543.09 320.19L539.16 322.97L536.75 322.81L538.04 318.09L535.12 319.34L534.92 316.56L532.67 315.43L533.06 309.87L538.54 302.82L541.34 302.66L546.71 298.15L549.39 299.64L546.98 298.03L549.08 294.32L548.23 292.63L550.52 291.15L550.95 291.67L554.02 287.36L558.45 284.7L559.77 285.43L560.4 283.49L561.02 284.94L563.08 284.34L562.22 283.38L565.37 279.64L561.8 278.59L560 282.29L556.82 282.05L554.68 279.27L561.52 270.02L571.91 260.89L573.04 264.39L575.44 265.67L573.34 268.82L575.13 272.92L574.28 274.6L576.85 275.09L566.11 290.78L567.36 296.18L565.88 296.42L566.81 296.9L565.72 302.62L567.47 304.03L569.34 303.38V304.59L574.09 301.21L575.99 294.32L579.45 291.3L579.57 293.68L577.47 295.45L580.19 293.19L581.12 290.13L579.8 288.37L582.44 285.71L585.79 277.34L588.28 275.24L587.58 272.67L591.86 267.93L593.25 263.43L595.9 262.38L598.93 255.79L601.65 255.31L601.97 252.49L598.82 255.19L596.52 254.26L596.6 252.09L595.2 251.05L596.83 248.56L596.6 246.14L593.02 239L595.44 229.28L600.88 224.79L599.79 220.21L601.38 218.73L602.32 219.37L603.56 217.2L607.6 221.21L610.41 221.53L612.58 219.37L613.29 220.97L614.8 220.85L616.98 212.27L612.54 207.38L613.56 205.21L611.38 205.53L613.6 204.77L617.64 207.25V208.62L621.64 208.98L621.92 212.31L619.54 216.76L618.06 222.22L618.69 224.86L617.6 225.59L620.17 228.64L619.66 232.37L621.02 229.2L621.96 229.52L620.86 223.42L622.35 225.1L621.46 225.71L623.31 227.15L623.9 226.23L622.03 223.66L624.64 224.42L622.81 223.18L625.92 221.74L622.11 219.17L625.41 218.16L621.41 217.88L623.66 217.73L622.11 216.52L622.38 215.44L623.36 216.52L623.78 213.84L625.88 214.64L627.48 213.48L624.98 212.99L626.23 207.22L624.29 202.57L625.45 200.72L624.17 198.92L624.91 201.44L621.91 202.45L614.33 197.19L616.24 195.95L619.58 196.31L621.21 194.11L622.77 195.95L622.62 193.87L625.69 193.42L622.81 192.63L624.25 191.06L620.67 191.31L621.06 188.9L619.12 190.9L618.96 189.54L617.8 190.26L617.71 188.82L612 186.53L610.21 179.4L612.15 177.96L610.01 177.53L608.89 174.28L610.76 169.08L613.67 169.76L615.11 167.55L610.6 167.87L612 157.23L617.17 157.03L616.35 157.95L619.55 159.39L618.53 158.11L619.39 156.91L617.6 156.99L617.99 155.15L616.2 155.39L619.35 148.47L622.35 151.23L619.46 153.23L620.21 155.19L622.42 153.39L621.18 156.27L621.92 157.43L622.38 155.35L623 156.47L624.83 155.79L623.47 153.75L627.16 154.43L623.43 151.07L628.06 150.47L630.36 155.23L628.64 156.03L629.54 157.35L630.82 156.43L628.72 159.47L632.26 156.55L633.11 157.91L635.64 157.79L635.57 164.03L637.35 165.23L637.2 169.4L639.69 170.2L638.64 171.92L637.66 171L637.9 172.92L640.35 174.08L643.46 178.32L645.55 177.52L646.64 178.64L652.09 175.84L651.35 174.68L654.39 172.04L653.49 170.48L651.28 170.52L651.47 169.35L653.3 169.47L651.51 168.92L653.3 167.8L651.43 166.44L653.29 165.23L651.59 163.39L653.45 161.71L651.97 161.23L653.34 159.59L654.35 161.27L653.69 159.79L655.16 159.55L653.92 157.71L655.4 158.27L652.99 156.35L652.6 153.07L655.05 151.35L657.42 154.83L657.15 156.63L658.35 154.91L656.95 153.55L658.55 154.23L659.6 152.99L658.12 152.83L660.26 150.79L663.21 152.79L663.88 151.31L662.51 149.91L664.69 150.31L665.24 152.55L665.04 150.43L667.1 150.79L666.87 149.59L669.24 149.71L668.5 151.91L670.21 152.23L671.18 150.83L666.44 141.39L666.25 135.44L668.31 136.11L671.54 141.51L676.9 144.71L678.38 143.27L682.81 143.59L681.88 145.67L684.33 143.79L684.21 142.31L687.71 142.71L689.73 140.88L691.29 141.83L690.86 140.51L693.31 140.15L695.34 136.24L697.78 136.59L696.34 134.16L696.26 135.12L694.91 134.2L695.92 132.76L695.06 131.16L698.17 127.48L697.82 126.25L700.59 126.92L699.3 123.93L697.74 124.89L697.16 123.8L698.56 122.45H697.01L697.94 120.61L696.54 119.73L697.7 117.89L696.85 116.22L698.17 116.3L697.51 114.18L698.8 114.46L697.16 112.78L699.27 111.99L698.25 110.79L699.07 108.99L700.2 109.19L699.34 108.08L701.21 104.8H703.31L703.42 101.97L704.86 102.48L703.77 100.97L704.74 99.97L705.21 101.25L706.34 100.81L705.01 99.05L706.11 97.69L707.23 100.13L707.16 97.65L710.39 98.57L708.86 96.46L706.73 96.74L707.39 94.78L709.22 95.78L707.86 93.91L710.46 95.14L708.36 92.98L709.61 89.64L712.8 90.03L709.68 88.36L710.85 83.81L708.82 81.5L709.3 80.06L706.1 77.91L704.94 71.37L705.95 69.94L704.59 68.06L701.68 68.26L701.52 66.03L703.46 63.17L701.79 63.92L701.83 62.37L704.71 56.39L699.07 58.98L698.79 55.27L694.21 50.41L694.29 46.75L693.12 46.51L692.92 49.26L689.23 46.91L691.25 45.87L691.09 43.33L693.23 42.17L695.02 43.92L701.56 44.4L705.95 52.33L705.37 53.48L709.49 51.81L710.85 43.88L712.72 41.65L711.86 40.93L712.75 40.34L711.08 40.14L712.05 38.74L713.89 39.9L712.09 38.39L712.64 37.43L714.93 35.96L716.33 37.07L716.69 34.49L717.65 33.81L718.43 34.93L720.53 32.46L720.92 34.45L722.95 34.13L723.65 29.27L724.73 29.91L725.97 28.64L726.21 29.91L728.47 30.23L729.98 26.92L728.9 23.43L731.34 19.73L731.58 21.08L733.48 20.8V18.41L731.34 16.54L729.28 18.02L730.53 16.27L728.31 14.24L726.13 15.51L723.3 14.67L725.67 12.57L728.7 12.65L729.09 10.26L731.23 11.73L733.13 15.91L734.14 14L735.55 15.67L735.27 12.52L734.38 12.96L733.48 11.1L733.8 8.63L730.53 8.55L731.85 8.23L732.35 5.88L733.52 7.78999L735.03 7.36L732.94 5.53L733.91 4.13L735.78 7.08L737.06 4.97L734.42 3.62L738.11 0L740.76 0.32L741.26 1.31L740.02 1.95L742.89 1.87L743.75 4.00999L742.81 4.57001L744.61 5.92L743.98 8.16L745.77 9.27L743.98 9.58L747.09 10.62L748.73 14.83L747.56 15.07L747.17 18.09L749.81 25.57L744.64 20.12L742.78 24.74L742.31 22.67L740.91 23.15L739.31 21.67L738.58 18.69L736.05 21.91L738 23.58L735.51 26.84L741.53 27.52L741.72 29.07L738.66 32.54L735.31 28.48L733.17 33.77L735.78 35.25L736.79 33.33L738.03 33.01L738.19 34.21L743.09 29.99L744.6 31.86L743.44 34.01L747.05 34.2L748.42 31.14L746.63 28.92L748.93 26.57L752.46 29.15L752.23 32.5L754.95 35.76L753.39 36.32L756.5 38.39L756.31 41.13L759.89 38.19L763 38.66L765.45 42.05L765.3 45L764.47 45.75L762.07 42.73L759.61 45.24L760.89 46.31L763.23 45.19L764.01 49.66L765.99 49.3L764.79 47.35L767.51 49.42L766.89 45.27L767.94 46.67L770.11 56.39L767 56.23L768.02 54.08L765.95 51.41L765.52 57.03L767.78 60.21L765.84 66.59L767.31 66.91L767.04 68.15L767.94 67.47L767.74 68.62L768.91 67.34L771.47 67.58L774.32 70.81L777.27 78.47L774.86 82.06L776.3 83.53L776.38 81.7L778.47 82.9L777.89 80.62L779.83 79.11L780.15 75.52L781.74 75.08L782.2 76.6L782.83 75.63L782.6 78.35L784.08 79.23L785.47 77.95L786.21 80.62L788.94 81.9L787.92 83.73L790.26 89.71L791.93 90.39L793.87 89.12L795.39 90.51L792.59 94.58L793.8 94.22L795.66 96.3L796.6 94.46L798.27 100.17L802.16 104.48L801.38 119.49L799.36 121.97L802.47 119.81L804.1 125.64L806.66 128.76L804.96 131.88L806.2 131.72L807.56 135.68L810.25 134.27L809.55 143.47L810.87 145.79L809.39 149.23L810.75 147.67L811.18 150.59L813.98 153.87L814.21 158.27L816.78 161.15L816.31 166.52L818.64 169L819.19 173L820.36 172.28L821.83 176.76L821.21 197.84L822.38 197.67L824.25 201.76L823.31 209.94L820.12 210.91L823.32 210.34L822.15 219.09L826.03 222.14L827.52 225.18L825.18 239.96L826.34 246.07L825.64 252.73L829.06 260.69L829.69 269.78L833.19 276.94L833.42 279.83L832.02 280.47L834.05 280.88L836.07 286.51L838.25 287.88L839.57 292.63L841.28 294.16L840.73 300.04L841.74 301.97L849.06 310.35L848.9 313.26L852.4 315.03L853.8 326.16L852.25 328.17L852.09 335.92L850.14 338.34L848.59 346.57L839.64 367.57L839.02 370.56L840.58 371.37L836.22 374.44L836.38 377.03L832.34 380.35L831.94 382.77L829.38 385.11L830.08 387.46L823.74 389.12L821.71 383.94L814.09 380.3L810.86 377.11L810.24 368.7L805.04 363.45L805.5 353.19L798.89 346.17L800.45 341L799.09 334.74L795.97 332.64L795.04 334.59L790.76 334.1L785.86 335.95L784.74 335.51L785.63 334.83L781.74 335.15L776.26 340.03L773.3 344.79L773.46 349.8L776.26 353.27L775.25 359.97L780.61 372.26L781.78 378.73L783.33 379.7L779.75 386.65L778.21 393.37L780.46 396.68L779.99 400.25L785.44 405.03L784.39 406.2L789.75 405.06L789.01 406.4L792.71 407.09L795.62 411.18L791.27 423.25L792.98 426.66L792.59 430.63L793.88 431.73L795.58 431L796.17 433.63L794.45 436.39L793.84 444.09L790.06 449.32L788.16 449.45L790.1 449.7L790.03 451.4L786.64 457.2L784.93 458.09L785.83 457.08L784.39 456.64L782.94 457.81L783.26 461.63L782.32 461.79L787.26 469.06L793.45 471.13L778.32 474.43L777.54 473.53L777.93 474.51L770.07 477.92L770.12 481.38L764.98 489.83L763.66 496.18L761.94 496.5L763.19 497.07L761.72 500.98L759.14 506.35L756.74 507.49L758.99 506.68L756.35 511.32L753.24 522.64L757.67 527.37L756.97 531.37L759.77 533.97L758.84 537.57L759.26 539.24L760.47 539.11L759.69 544.99L760.94 550.04L759.15 550.78L760.97 550.24L762.53 552.78L764.05 552.82L754.56 588.36L753.59 591.1L752.07 590.9L753.47 591.23L753.08 595.24L755.49 600.8L753.12 601.41L750.91 604.49L746.78 625.21L741.96 632.59L743.05 632.1L724.97 680.84L725.2 679.36L719.8 675.78L724.77 681.7L721.82 690.5L719.8 692.73L718.78 698.82L716.88 702.4L717.03 699.92L715.9 701.62L714.97 715.13L714.24 711.37L713.26 712.99L714.58 715.79L712.95 720.4L711.2 724.24L711.59 721.02L710.69 722.47L709.18 726.96L711.01 724.94L707.89 733.27L700.97 748.3L697.47 769.04L699.81 775.91L696.03 782.73L695.57 780.99L690.63 778.47L695.68 783.93L690.08 797.43L685.07 805.01L686.58 801.16L685.5 801.9L683.55 806.04L684.88 805.71L679.59 819.56L679.67 826.2L677.64 833.42L675.43 836.96L675.81 834.54L673.48 838.12L671.96 838.07L671.77 839.86L675.15 837.66L666.36 868.93L664.88 880.08L663.18 880.67L663.52 884.96L664.81 881.42L664.58 884.75L655.24 907.1L650.96 908.01L654.62 908.94L653.92 912.1L652.13 912.6L654.15 913.02L652.98 923.55L647.7 935.16L645.6 944.12L644.66 943.94L645.06 946.45L641.24 957.92L639.03 962.24L630.98 958.59L633.97 961.65L638.44 963.28L634.71 975.69L630.28 982.06L624.29 995.82L611.92 1031.98L604.07 1080.97L598.46 1095.08L597.61 1105.24L593.95 1105.23L597.38 1106.33L595.51 1117L590.61 1118.28L595.01 1117.89L594.42 1121.67L591.7 1126.41L588.05 1141.34L586.68 1138.49L583.53 1139.81L585.51 1142.22L587.74 1142.18L587.42 1144.3L573.51 1189.11L565.95 1203.07L565.76 1200.74L561.76 1201.81L566.35 1203.59L560.94 1216.69L560.28 1214.34L562.32 1212.58L559.7 1213.1L557.71 1211.78L560.98 1217.41L558.45 1224.03L558.73 1222.19L557.33 1222.36L558.49 1224.67L557.17 1232.53L553.9 1243.04L551.03 1249.11L550.71 1249.03L549.7 1253.31L546.94 1258.15L545.5 1257.59L546.83 1258.36L547.6 1264.36L540.6 1272.67L539.91 1276.69L541.54 1279.61L539.71 1281.03L540.21 1278.75L538.78 1276.91L537.96 1277.81L539.44 1281.07L538.11 1286.73L536.91 1284.03L532.55 1283.09L531.62 1284.89L537.03 1284.5L533.18 1284.8L528.63 1287.31V1291.71L525.94 1291.5L525.4 1295.01L522.91 1294.41L522.76 1292.35L520.97 1293.04L520.03 1290.46L518.67 1291.45L520.31 1291.88L519.76 1294.11L521.97 1294.41L513.81 1297.51L512.72 1300.17L510.31 1298.7L510.58 1300.04L506.65 1303.95L503.46 1302.4L504.98 1304.34L494.76 1308.07L493.66 1306.27L488.53 1306.35L483.94 1304.55L476.64 1305.32L474.14 1302.15L476.24 1305.41L462.01 1307.9L441.63 1315.81L423.98 1324.93L398.93 1343.36L389.76 1346.98L371.02 1347.41L357.25 1350L355.03 1348.84L353.91 1343.54L341.93 1337.67Z" fill="#7A2D1F"/>
<path d="M628.417 792.066C623.685 792.392 619.361 792.882 618.872 793.208C618.3 793.535 617.158 793.372 616.261 792.8C614.956 791.984 613.405 791.984 608.674 792.882C605.41 793.453 600.189 794.27 597.007 794.678C593.907 795.086 589.094 796.147 586.401 796.963C583.709 797.861 580.038 798.596 578.243 798.596C576.448 798.596 573.348 799.167 571.308 799.902C569.269 800.637 563.232 801.78 557.847 802.433C549.281 803.494 542.51 804.8 531.251 807.739C529.619 808.147 526.927 808.473 525.214 808.473C523.582 808.473 518.442 809.534 513.955 810.84C509.387 812.147 501.799 813.779 497.068 814.514C492.336 815.167 484.585 817.044 479.772 818.677C474.959 820.228 469.492 821.534 467.616 821.534C462.232 821.534 449.994 825.207 440.367 829.779C435.064 832.227 427.559 834.921 422.011 836.309C412.221 838.839 392.804 844.88 391.417 845.941C391.009 846.268 387.501 847.737 383.748 849.206C379.996 850.676 374.693 853.288 371.919 855.002C369.227 856.798 365.311 859.247 363.353 860.471C358.539 863.492 351.441 869.206 345.159 875.001C335.696 883.654 319.869 899.409 315.218 904.796C312.689 907.735 310.405 910.265 310.16 910.51C309.915 910.755 308.773 912.224 307.713 913.939C306.652 915.571 304.368 918.51 302.736 920.469C299.962 923.816 297.596 927.734 291.641 939.489C289.275 944.06 284.054 952.141 282.096 954.019C280.301 955.815 273.121 967.814 271.979 970.998C271.408 972.549 270.592 974.426 270.184 975.161C269.776 975.977 269.45 977.202 269.45 977.855C269.45 978.508 268.553 980.548 267.492 982.263C265.86 984.875 265.453 986.426 265.534 990.997C265.616 995.895 265.86 996.793 267.737 998.507C271.49 1001.94 272.224 1002.43 277.201 1005.2C279.893 1006.67 283.482 1008.96 285.114 1010.26C287.725 1012.3 290.907 1013.93 297.596 1016.55C298.494 1016.96 300.615 1017.85 302.328 1018.59C304.041 1019.32 305.918 1019.89 306.652 1019.89C307.305 1019.89 308.692 1020.38 309.671 1021.04C311.71 1022.42 325.09 1026.42 327.537 1026.42C328.353 1026.42 331.209 1027.4 333.738 1028.55C336.267 1029.69 342.467 1032.3 347.362 1034.34C352.339 1036.38 358.947 1039.16 362.047 1040.46C369.716 1043.73 381.79 1047.89 389.786 1050.02C393.375 1050.99 398.189 1052.3 400.391 1052.95C402.676 1053.61 405.613 1054.26 406.918 1054.5C409.773 1054.91 415.566 1056.22 422.174 1057.93C424.703 1058.59 428.538 1060.14 430.659 1061.28C434.575 1063.48 442.488 1070.91 448.444 1077.85C456.358 1087.32 471.043 1102.1 477.814 1107.65C486.543 1114.67 493.967 1118.42 505.634 1121.52C510.121 1122.67 514.445 1123.89 515.261 1124.05C517.79 1124.79 516.811 1121.28 512.813 1115.65C511.589 1114.09 510.937 1111.89 510.937 1109.93C510.937 1108.14 510.366 1106.01 509.713 1105.12C509.06 1104.3 508.489 1102.91 508.489 1102.18C508.489 1101.36 507.184 1099.07 505.634 1096.95C504.084 1094.91 502.778 1092.38 502.778 1091.4C502.778 1090.42 502.452 1089.28 502.044 1088.87C501.636 1088.38 500.576 1085.93 499.597 1083.32C498.618 1080.63 496.986 1077.36 495.925 1075.97C493.315 1072.3 492.907 1070.75 494.212 1069.36C495.191 1068.38 498.291 1068.22 512.242 1068.55C532.067 1068.95 533.699 1069.44 541.449 1076.95C544.712 1080.06 547.812 1082.18 550.505 1083.08C557.195 1085.44 562.742 1088.22 574.898 1095.24L586.401 1101.93L593.091 1102.09C597.252 1102.18 600.678 1102.67 602.229 1103.48C605.41 1105.2 605.573 1105.12 605.573 1102.75C605.573 1101.03 605.981 1100.71 607.939 1100.71C609.326 1100.71 611.774 1101.52 613.487 1102.58C620.014 1106.42 626.54 1106.91 660.234 1105.93C667.169 1105.69 676.306 1103.97 681.283 1101.85C682.751 1101.2 684.628 1100.71 685.525 1100.71C686.341 1100.71 688.054 1100.22 689.36 1099.56C690.583 1098.91 694.826 1096.79 698.823 1094.91C704.616 1092.05 706.818 1090.5 710.734 1086.01C713.427 1083.08 716.282 1079.32 717.179 1077.77C718.077 1076.22 719.709 1073.36 720.932 1071.32C722.074 1069.28 723.053 1066.83 723.053 1065.77C723.053 1064.71 723.38 1063.24 723.869 1062.42C724.848 1060.55 723.38 1050.59 721.667 1047.4C720.769 1045.61 720.688 1044.55 721.34 1042.67C722.074 1040.63 721.911 1039.49 720.443 1036.46C718.974 1033.36 718.811 1032.38 719.627 1030.18C720.606 1027.65 720.035 1024.55 718.077 1020.55C717.669 1019.73 717.343 1018.26 717.343 1017.28C717.343 1014.75 713.427 1009.45 710.49 1007.89C708.532 1006.91 706.574 1006.75 700.618 1007.16C692.541 1007.81 690.42 1007.4 690.42 1005.28C690.42 1003 696.457 997.691 699.965 996.956C701.679 996.63 704.534 995.976 706.329 995.487C710.571 994.344 720.851 994.507 729.417 995.895C735.291 996.793 738.391 998.017 752.913 1005.36C762.132 1010.02 772.819 1015.49 776.735 1017.53C780.651 1019.57 789.87 1024.38 797.294 1028.22C804.718 1031.98 811.898 1035.73 813.203 1036.46C822.83 1041.69 845.265 1051.89 850.323 1053.36C865.09 1057.77 873.085 1055.73 878.878 1046.34C881.162 1042.67 880.591 1041.2 874.962 1036.22C872.433 1033.93 869.251 1030.18 867.864 1027.89C866.559 1025.61 863.132 1021.04 860.358 1017.77C857.503 1014.51 855.218 1011.57 855.218 1011.24C855.218 1011 853.587 1008.47 851.629 1005.69C847.223 999.487 844.694 994.344 841.757 985.528C840.533 981.773 839.228 978.263 838.902 977.855C838.575 977.365 837.596 974.263 836.862 970.835L835.394 964.631L838.412 958.59C840.044 955.243 842.981 950.672 845.021 948.468C846.979 946.182 849.181 942.754 849.916 940.713C850.568 938.672 852.363 935.734 853.832 934.183C862.153 925.204 872.351 912.714 872.351 911.49C872.351 911.082 873.085 910.102 873.901 909.367C874.798 908.551 876.185 906.102 877.001 903.817C877.817 901.613 879.612 898.429 880.999 896.715C884.425 892.797 887.036 888.062 887.036 885.858C887.036 884.879 886.057 882.838 884.915 881.287L882.712 878.43L872.84 878.838C863.703 879.246 857.258 880.226 837.27 884.552C825.522 887.083 803.739 894.103 790.033 899.817C786.77 901.204 783.67 902.347 783.18 902.347C782.772 902.347 774.614 905.449 765.15 909.204C736.107 920.714 725.827 923.571 713.59 923.571C703.555 923.571 701.108 923 700.129 920.469C699.15 917.857 700.21 917.041 704.86 917.041C707.226 917.041 709.919 916.143 713.427 914.265C717.587 912.061 718.811 910.837 720.769 907.245C721.993 904.878 723.053 902.592 723.053 902.184C723.053 901.041 729.417 887.899 732.191 883.491C733.822 880.715 734.72 878.185 734.965 875.001C735.128 872.552 735.862 869.369 736.596 867.981C737.82 865.614 737.738 865.043 736.27 859.982C734.475 854.186 733.904 851.982 732.925 845.533C731.457 837.125 725.827 827.656 717.669 819.983C714.569 817.126 710.326 813.942 708.205 812.963C706.084 811.902 702.902 810.024 701.271 808.636C699.557 807.33 696.702 805.453 694.907 804.473C693.112 803.494 691.073 802.433 690.42 802.024C688.462 800.963 676.469 797.127 672.88 796.555C671.085 796.229 668.556 795.494 667.169 795.004C665.864 794.433 662.192 793.698 659.011 793.372C655.91 793.045 652.565 792.637 651.668 792.392C648.894 791.657 637.391 791.494 628.417 792.066ZM703.066 913.775C703.31 914.184 702.984 914.592 702.25 914.592C701.515 914.592 701.189 914.184 701.434 913.775C701.679 913.286 702.087 912.959 702.25 912.959C702.413 912.959 702.821 913.286 703.066 913.775Z" fill="black"/>
<path d="M788.358 425.467C810.206 431.109 818.543 433.891 823.716 437.292C824.874 437.987 828.502 439.301 831.822 440.074C835.141 440.847 839.001 442.084 840.314 442.779C841.626 443.475 843.402 444.016 844.251 444.016C845.949 444.016 850.118 448.576 849.192 449.426C848.883 449.812 844.405 450.199 839.31 450.431C829.274 450.817 824.796 451.899 825.182 453.909C825.491 455.686 829.892 456.536 835.759 456.073C861.544 454.063 889.953 453.522 892.964 455.068C895.666 456.459 898.059 460.401 898.6 464.342C899.526 471.298 896.747 482.891 891.806 492.707C890.648 495.025 889.567 498.967 889.104 502.368C888.1 510.405 885.012 516.125 877.601 523.776L871.502 530.036L867.951 529.573C863.628 528.954 859.845 526.636 851.199 519.371C847.57 516.279 843.788 513.342 842.707 512.801C838.924 510.792 832.13 504.532 828.039 499.353C821.168 490.62 819.315 489.615 805.342 487.606C796.927 486.446 788.281 486.678 789.207 488.147C789.439 488.533 790.983 489.538 792.681 490.465C795.229 491.702 796.232 492.938 798.085 497.035C799.32 499.817 801.405 503.604 802.717 505.459C805.882 509.864 813.216 515.506 819.315 518.289C822.249 519.525 824.256 520.916 824.256 521.612C824.256 523.467 818.389 524.703 810.36 524.549C806.346 524.472 801.791 524.781 800.324 525.245C798.857 525.631 794.148 526.327 789.902 526.713C785.656 527.099 775.774 528.491 767.9 529.804C757.169 531.659 751.148 532.278 743.582 532.355C733.006 532.355 733.855 532.587 719.11 527.022C714.555 525.322 709.151 521.535 707.221 518.675C706.217 517.207 704.828 513.961 704.133 511.333L702.82 506.618H693.788V517.207C693.788 528.568 693.325 530.036 689.388 532.046C686.763 533.437 684.987 533.05 681.745 530.577C680.124 529.263 676.109 526.481 672.867 524.394C668.235 521.303 665.764 518.984 661.75 513.651L656.578 506.773L648.394 505.923C616.588 502.445 613.577 502.058 608.096 500.513C605.317 499.662 599.913 498.658 596.13 498.271C592.27 497.808 586.017 496.494 582.234 495.334C578.374 494.252 573.588 493.016 571.58 492.629C568.184 492.088 564.401 490.156 549.424 481.577C546.645 479.954 542.09 476.708 539.156 474.312C536.3 471.916 532.208 468.516 530.124 466.893C526.882 464.42 526.264 463.492 526.264 461.405C526.264 460.014 527.036 457.773 528.04 456.304C529.429 454.14 530.587 453.522 533.984 452.749C540.546 451.281 561.081 447.185 571.812 445.175C577.139 444.17 582.466 442.934 583.778 442.47C589.491 440.229 616.202 434.664 627.396 433.273C631.41 432.809 641.678 431.573 650.17 430.568C658.662 429.486 670.782 428.481 677.19 428.249C683.52 428.017 691.704 427.322 695.332 426.549C700.659 425.544 704.596 425.39 716.562 425.776C724.591 426.008 733.778 426.703 736.866 427.322C742.656 428.404 746.284 428.172 765.584 425.467C772.146 424.539 784.884 424.539 788.358 425.467Z" fill="black"/>
<path d="M221 480.2C221 480.733 222.2 482.733 223.533 484.733C226.2 488.467 229.267 501.4 231.4 517.8C233.133 530.867 240.867 543.8 257.4 561.4C270.467 575.4 282.333 591.267 282.333 594.733C282.333 597.533 280.2 598.067 259.933 600.467C239.933 602.733 228.867 602.2 220.333 598.467C214.867 596.067 197 581.933 177 564.467C159.667 549.267 130.067 527.933 121.4 524.467C107.133 518.733 96.333 518.867 93.133 524.733C92.467 526.067 90.467 531.933 88.867 537.8C86.333 547 86.067 551.4 86.2 573.4L86.333 598.467L91.133 610.733C97.933 628.067 98.2 631.133 93.267 638.333C91 641.667 87.133 646.067 84.467 648.067C77.667 653.667 71.533 667.267 66.867 687.533C63.667 701.933 65.8 712.6 73.267 719.667C77 723.133 84.6 723.133 95.8 719.8C100.467 718.333 108.2 716.467 113 715.533C123.8 713.533 141.667 706.2 162.867 695.133C172.2 690.2 187.533 683.8 199.267 679.8C219 673.133 219.8 673 234.6 673.133C246.733 673.133 252.067 673.933 262.2 676.733C269.133 678.733 275 681.133 275.4 681.933C275.667 682.867 274.867 683.667 273.533 683.667C272.2 683.667 263.667 691.4 254.467 700.867C245.267 710.2 234.333 720.067 230.333 722.733C217.533 731.133 215.267 733.533 216.2 736.733C217.8 741.667 229.4 744.2 250.333 744.333C278.867 744.333 288.867 742.467 306.467 733.8C314.6 729.667 322.467 726.333 323.933 726.333C325.267 726.333 328.333 725.533 330.733 724.467C333.133 723.533 338.467 722.333 342.733 721.8C349.667 720.867 350.333 721 350.333 723.4C350.333 727 352.333 727.533 361.933 725.933C371.267 724.333 375.267 725.533 377.8 730.867C380.467 736.6 373.267 746.867 360.6 755.4C354.067 759.8 350.867 765.4 353.667 767.667C359.533 772.467 417.133 760.867 437.4 750.867C441 749.133 444.733 747.667 445.8 747.667C446.733 747.667 449.133 750.067 451.133 753C458.333 763.8 465.267 764.867 467.8 755.267C470.467 745.533 474.467 735.933 476.733 733.933C478.067 732.867 484.067 731.267 490.333 730.333C496.6 729.4 506.2 727.267 511.667 725.533C517.133 723.8 523.8 722.333 526.333 722.333C532.067 722.333 535.133 721.4 553 714.333C560.733 711.267 571.533 707.267 577.133 705.533C582.6 703.8 590.733 700.2 595.133 697.533C599.4 694.867 605.4 691.533 608.333 690.067C620.6 683.8 629 673.4 629 664.467C629 657.533 623.667 649 610.733 635.4C603.533 627.8 595.533 618.867 593 615.4C590.467 612.067 584.733 607 580.333 604.2C575.933 601.4 566.333 593 558.867 585.533C543.933 570.333 533.933 563.267 518.6 557C506.867 552.067 503.667 549.667 503.667 545.8C503.667 544.333 502.2 540.067 500.467 536.333C498.733 532.733 496.2 526.867 495 523.267C491.933 514.733 480.733 501.4 475.667 500.333C473.533 499.8 471.133 499.8 470.333 500.333C469.533 500.867 466.467 499.4 463.4 497.133C457.4 492.733 454.467 492.067 452.067 494.467C450.867 495.667 449.267 495.533 445.667 493.8C440.2 491.133 434.333 491.933 434.333 495.133C434.333 496.867 433.533 497.133 430.733 496.333C426.733 495.267 425.267 495.267 403.667 495.933C389.8 496.333 389.667 496.333 389.4 499.667C389.4 501.533 389.267 503.4 389.133 504.067C389 504.6 386.467 503.8 383.533 502.2C377.267 499.133 374.467 500.2 376.867 504.867C378.733 508.333 376.733 508.6 371.667 505.667C367.933 503.533 358.867 503 357.667 504.867C357.267 505.667 355.4 505.667 353 504.733C348.2 503.133 345 504.067 345 507C345 508.733 344.2 509 341.133 508.333C338.867 507.933 335.933 508.2 334.333 509C332.067 510.2 330.867 509.8 327.267 507.133C324.733 505.267 320.467 503.667 317 503.267C313.667 503 306.867 501.4 301.667 499.8C296.6 498.2 288.6 495.933 283.933 494.867C279.267 493.933 274.333 492.333 273 491.667C266.2 488.067 221 478.067 221 480.2Z" fill="black"/>
<path d="M498.004 243.038C496.765 244.817 496.843 245.435 498.546 247.6C499.629 248.992 501.332 253.863 501.332 255.796C501.409 259.12 504.273 263.914 507.06 265.228C508.608 265.924 509.846 266.697 509.846 267.006C509.846 268.089 499.552 269.712 492.818 269.635C487.013 269.558 483.066 268.939 473.855 266.62C465.418 264.455 460.078 263.527 454.273 263.295C442.895 262.831 440.109 264.146 436.239 271.877C433.065 278.063 432.91 285.098 435.774 293.912C436.935 297.469 437.864 301.876 437.864 303.732C437.864 308.525 439.876 317.494 441.811 321.282C445.527 328.55 452.725 336.591 456.982 338.215C464.257 340.921 474.861 335.818 489.412 322.519C499.32 313.396 505.589 309.53 513.097 307.829C520.45 306.206 534.614 305.046 533.453 306.206C533.066 306.592 530.28 307.907 527.416 309.066C524.552 310.303 521.688 312.004 521.069 312.855C519.521 315.097 519.598 319.04 521.456 324.762C522.849 329.246 522.849 329.787 521.766 332.416C520.063 336.436 521.301 339.297 524.397 338.601C530.744 337.055 534.072 336.436 540.187 335.818C543.902 335.431 550.404 334.658 554.506 333.962C558.685 333.344 565.342 332.416 569.289 331.875C578.113 330.715 580.435 329.323 591.735 318.576C596.07 314.324 600.094 311.077 600.636 311.309C601.178 311.463 603.5 312.082 605.977 312.623L610.311 313.628L608.841 316.025C607.68 317.88 607.447 319.272 607.834 322.288C608.454 327.004 609.615 328.396 614.181 329.942C618.903 331.565 620.683 331.488 622.695 329.555C623.701 328.705 625.636 327.468 627.03 326.927C629.119 326.076 629.971 324.994 631.054 322.133C631.751 320.045 632.835 318.035 633.376 317.571C633.996 317.107 637.479 316.489 641.194 316.257C653.346 315.484 674.089 311.541 689.569 307.134C695.374 305.51 701.024 304.118 702.108 304.118C703.191 304.118 705.591 303.732 707.371 303.345C709.228 302.881 712.944 302.031 715.653 301.412C723.547 299.557 743.749 290.82 745.142 288.655C745.374 288.346 746.613 287.573 747.851 286.877C752.031 284.789 761.396 275.511 761.396 273.578C761.396 270.486 756.907 267.316 750.87 266.233C747.928 265.692 743.671 264.532 741.427 263.759C728.191 258.888 698.934 252.703 672.386 249.224C665.807 248.373 657.603 247.213 654.197 246.672C650.095 246.054 639.181 245.744 622.076 245.822C599.785 245.822 594.212 246.131 582.138 247.6L568.051 249.456L553.267 247.755C545.063 246.827 535.001 245.203 530.899 244.121C524.939 242.497 520.914 242.033 511.317 241.724C499.397 241.337 499.242 241.337 498.004 243.038Z" fill="black"/>
<path d="M3.70876 1121.71C0.280248 1123.11 -0.898304 1126.75 0.708812 1131.36C2.95878 1137.89 12.4943 1149.25 20.9585 1155.36C46.3509 1173.79 53.3151 1180.53 53.3151 1186.86C53.3151 1189.64 45.4938 1195 29.9583 1202.93C20.6371 1207.75 7.56584 1220.28 5.74444 1226.28C4.56589 1230.03 9.60152 1237.11 13.9943 1237.86C24.8156 1239.89 47.3152 1236.46 87.6003 1226.5C94.3501 1224.89 103.993 1222.75 109.028 1221.89C114.064 1221.03 122.421 1219.11 127.671 1217.61C132.814 1216.11 138.385 1214.82 139.778 1214.82C142.135 1214.82 142.349 1215.14 141.707 1217.18C141.385 1218.57 140.635 1221.25 140.099 1223.28C139.564 1225.21 138.707 1227.36 138.064 1228C135.921 1230.14 136.778 1234.11 139.564 1235.39C142.349 1236.57 160.563 1235.61 184.027 1233.03C189.063 1232.5 200.098 1231.53 208.67 1230.89C217.241 1230.25 226.777 1228.96 229.884 1228C232.991 1227.03 235.776 1226.61 236.098 1226.93C236.526 1227.25 235.776 1229.18 234.598 1231.11C229.991 1238.61 234.812 1239.89 255.919 1236.68C270.062 1234.64 271.133 1234.32 278.847 1231.11C282.383 1229.61 290.097 1227.78 295.99 1227.03C318.061 1224.03 326.096 1223.28 331.346 1223.61C337.346 1223.93 337.239 1223.71 335.632 1234.64C335.096 1238.07 335.418 1239.36 337.239 1241.28C338.418 1242.68 340.346 1243.75 341.418 1243.75C346.239 1243.75 370.024 1235.39 382.238 1229.5L395.631 1222.96H414.916C429.273 1222.86 435.916 1222.43 441.166 1221.03C453.273 1217.93 469.13 1215.14 469.665 1216.11C469.987 1216.53 469.773 1218.68 469.13 1220.71C468.058 1224.57 469.451 1226.07 470.63 1222.32C471.487 1219.53 479.63 1212.68 482.094 1212.68C483.808 1212.68 484.022 1213.64 484.022 1219.86C484.022 1227.57 486.272 1237.96 488.415 1239.89C489.379 1240.75 489.487 1240.32 488.737 1237.86C488.201 1236.03 487.772 1229.93 487.772 1224.03C487.772 1214.18 487.987 1213.43 490.237 1211.71C496.986 1207 499.772 1203.89 501.058 1199.82C502.236 1195.96 502.129 1195 500.415 1192C499.344 1190.18 496.772 1187.82 494.736 1186.75C482.308 1180.64 467.844 1174.11 463.666 1172.71C460.987 1171.86 451.344 1168.43 442.237 1165.11C433.13 1161.89 421.345 1158.14 415.988 1156.86C410.738 1155.57 399.595 1152.89 391.238 1150.96C382.988 1148.93 375.167 1147.32 373.988 1147.32C370.238 1147.32 355.239 1143.25 342.703 1138.75C332.739 1135.21 308.311 1128.89 288.49 1124.71C286.133 1124.18 276.169 1123.54 266.419 1123.11C249.919 1122.36 248.633 1122.46 247.883 1124.29C247.455 1125.57 248.098 1127.71 249.919 1130.29C251.312 1132.54 252.383 1135 252.062 1135.75C251.098 1138.43 261.383 1147.64 269.526 1151.61C273.704 1153.64 277.24 1155.57 277.24 1156C277.24 1157.29 258.169 1155.89 246.705 1153.64C222.598 1149.14 209.527 1147.32 200.527 1147.32C195.277 1147.32 185.206 1146.79 178.134 1146.25C157.778 1144.64 145.242 1147.64 142.242 1154.71C140.421 1159.11 142.349 1163.93 146.956 1166.39L150.278 1168.21L146.421 1168.54C141.814 1168.96 126.385 1165.21 120.707 1162.32C118.457 1161.14 111.493 1158.79 105.064 1157.07C87.7074 1152.25 83.7432 1150.64 58.6721 1138.43C46.0295 1132.21 31.8869 1126 27.3869 1124.5C17.7442 1121.29 7.88727 1120.11 3.70876 1121.71Z" fill="black"/>
</svg>
